<svg xmlns="http://www.w3.org/2000/svg" xmlns:xlink="http://www.w3.org/1999/xlink" width="80" zoomAndPan="magnify" viewBox="0 0 60 60" height="80" preserveAspectRatio="xMidYMid meet" version="1.0"><defs><g/><clipPath id="33994e9859"><path d="M 14.308594 13.199219 L 45.808594 13.199219 L 45.808594 34.949219 L 14.308594 34.949219 Z M 14.308594 13.199219 " clip-rule="nonzero"/></clipPath></defs><g clip-path="url(#33994e9859)"><path fill="#3e6ff4" d="M 39.011719 23.382812 C 40.625 23.425781 41.929688 23.042969 42.980469 22.320312 C 43.269531 22.121094 43.542969 21.894531 43.792969 21.644531 C 43.851562 21.59375 43.898438 21.535156 43.949219 21.484375 C 44.664062 20.738281 45.230469 19.789062 45.683594 18.683594 C 45.726562 18.578125 45.765625 18.472656 45.808594 18.363281 C 43.296875 19.941406 40.769531 21.628906 37.871094 22.410156 C 37.75 23.742188 37.398438 25.066406 36.679688 26.203125 C 36.597656 26.378906 36.453125 26.464844 36.257812 26.472656 C 36.863281 25.160156 37.195312 23.742188 37.296875 22.300781 C 39.363281 20.964844 41.3125 19.425781 42.929688 17.566406 C 44.007812 16.304688 44.945312 14.859375 45.3125 13.21875 L 39.414062 17.648438 L 39.332031 17.710938 L 33.925781 21.769531 C 34.507812 22.1875 35.136719 22.597656 35.527344 23.21875 C 35.980469 23.859375 36.03125 24.695312 35.835938 25.4375 C 35.238281 24.640625 34.589844 23.878906 33.84375 23.207031 C 33.519531 22.9375 33.273438 22.476562 32.800781 22.464844 C 32.851562 22.796875 32.886719 23.125 32.945312 23.457031 C 32.625 23.230469 32.28125 23.03125 31.9375 22.84375 C 31.578125 23.011719 31.21875 23.179688 30.851562 23.332031 L 30.800781 24.210938 L 30.785156 24.539062 L 30.738281 25.296875 L 30.722656 25.5625 C 30.417969 24.972656 30.140625 24.367188 29.832031 23.785156 C 29.523438 24.367188 29.234375 24.960938 28.929688 25.550781 L 28.804688 20.800781 L 28.753906 20.84375 L 28.328125 21.210938 L 28.042969 21.453125 L 27.703125 21.75 L 27.527344 21.90625 L 23.917969 25.003906 C 23.785156 23.613281 24.863281 22.515625 25.988281 21.894531 L 19.542969 17.082031 L 19.386719 16.964844 L 18.996094 16.675781 L 17.585938 15.621094 C 17.460938 15.519531 17.332031 15.425781 17.199219 15.332031 L 17.195312 15.324219 L 15.808594 14.289062 C 15.398438 13.960938 14.972656 13.652344 14.546875 13.34375 C 14.546875 13.34375 14.5625 13.421875 14.597656 13.558594 C 14.597656 13.558594 14.597656 13.558594 14.597656 13.566406 C 14.605469 13.597656 14.617188 13.628906 14.625 13.671875 C 14.636719 13.710938 14.648438 13.746094 14.65625 13.785156 C 14.65625 13.785156 14.65625 13.792969 14.660156 13.792969 C 14.855469 14.414062 15.335938 15.632812 16.453125 17.125 C 16.539062 17.246094 16.628906 17.367188 16.726562 17.484375 C 16.777344 17.546875 16.824219 17.605469 16.875 17.667969 C 16.898438 17.703125 16.929688 17.734375 16.957031 17.773438 C 17.011719 17.835938 17.070312 17.90625 17.125 17.976562 C 17.183594 18.039062 17.234375 18.101562 17.289062 18.164062 C 18.472656 19.507812 20.160156 20.996094 22.550781 22.421875 C 22.625 23.710938 22.941406 24.960938 23.355469 26.171875 C 23.179688 26.078125 23.054688 25.945312 22.976562 25.761719 C 22.554688 24.820312 22.328125 23.804688 22.226562 22.78125 C 19.335938 22.019531 16.816406 20.316406 14.308594 18.753906 L 14.308594 18.761719 C 14.308594 18.761719 14.308594 18.765625 14.308594 18.765625 C 14.523438 19.367188 14.78125 19.960938 15.101562 20.519531 C 15.363281 20.945312 15.703125 21.410156 16.128906 21.84375 C 16.1875 21.90625 16.25 21.964844 16.3125 22.027344 C 17.359375 23.023438 18.894531 23.847656 21.105469 23.796875 C 21.59375 24.902344 22.183594 25.957031 22.964844 26.882812 C 22.050781 26.246094 21.585938 25.171875 21.152344 24.1875 C 19.316406 24.242188 17.476562 24.085938 15.675781 23.742188 C 17.074219 25.015625 19.015625 25.667969 20.898438 25.359375 C 21.347656 26.121094 21.933594 26.785156 22.625 27.332031 C 23.105469 28.355469 23.980469 29.128906 24.617188 30.058594 C 25.253906 29.664062 26.050781 29.5 26.734375 29.882812 L 26.796875 30.121094 L 26.992188 30.886719 L 27.074219 31.203125 L 27.773438 33.972656 C 27.929688 33.105469 28.085938 32.226562 28.359375 31.382812 C 28.289062 32.074219 28.277344 32.765625 28.257812 33.457031 C 28.6875 33.933594 29.121094 34.410156 29.5625 34.882812 C 29.679688 33.457031 29.800781 32.023438 29.902344 30.59375 C 30.136719 32.023438 30.222656 33.484375 30.394531 34.925781 C 30.820312 34.429688 31.238281 33.921875 31.660156 33.425781 C 31.640625 32.734375 31.617188 32.042969 31.558594 31.351562 C 31.804688 32.183594 31.960938 33.03125 32.152344 33.867188 C 32.371094 33.15625 32.574219 32.445312 32.710938 31.722656 C 32.769531 31.050781 32.707031 30.375 32.710938 29.703125 C 33.222656 29.574219 33.789062 29.480469 34.273438 29.746094 C 34.542969 29.828125 34.796875 30.109375 35.097656 29.957031 L 35.382812 29.558594 L 35.617188 29.222656 L 35.867188 28.867188 C 36.402344 28.300781 36.691406 27.496094 37.390625 27.105469 C 38.1875 26.609375 38.785156 25.863281 39.25 25.066406 C 41.089844 25.367188 43.050781 24.769531 44.390625 23.484375 C 42.609375 23.789062 40.800781 23.960938 38.992188 23.902344 C 38.496094 25.179688 37.734375 26.410156 36.578125 27.195312 C 36.824219 26.769531 37.195312 26.433594 37.492188 26.050781 C 38.136719 25.242188 38.609375 24.324219 39.011719 23.382812 Z M 26.46875 28.132812 C 25.75 27.507812 25.433594 26.503906 25.648438 25.582031 C 26.796875 26.511719 27.9375 27.441406 29.046875 28.414062 C 28.1875 28.320312 27.3125 28.300781 26.46875 28.132812 Z M 33.246094 28.175781 C 32.402344 28.230469 31.566406 28.34375 30.726562 28.40625 C 31.824219 27.8125 32.949219 27.257812 34.074219 26.699219 C 33.890625 27.234375 33.632812 27.746094 33.246094 28.175781 Z M 33.246094 28.175781 " fill-opacity="1" fill-rule="nonzero"/></g><g fill="#393536" fill-opacity="1"><g transform="translate(16.178148, 44.781652)"><g><path d="M 3.5625 -2.265625 C 3.59375 -2.015625 3.609375 -1.816406 3.609375 -1.671875 C 3.609375 -1.140625 3.488281 -0.707031 3.25 -0.375 C 3.019531 -0.0507812 2.597656 0.109375 1.984375 0.109375 C 1.648438 0.109375 1.347656 0.0195312 1.078125 -0.15625 C 0.816406 -0.332031 0.609375 -0.59375 0.453125 -0.9375 C 0.296875 -1.28125 0.21875 -1.679688 0.21875 -2.140625 C 0.21875 -2.554688 0.296875 -2.925781 0.453125 -3.25 C 0.617188 -3.570312 0.84375 -3.820312 1.125 -4 C 1.40625 -4.1875 1.726562 -4.28125 2.09375 -4.28125 C 2.34375 -4.28125 2.546875 -4.257812 2.703125 -4.21875 C 2.867188 -4.1875 2.992188 -4.144531 3.078125 -4.09375 C 3.171875 -4.039062 3.25 -3.976562 3.3125 -3.90625 L 2.984375 -3.234375 C 2.816406 -3.460938 2.523438 -3.578125 2.109375 -3.578125 C 1.898438 -3.578125 1.710938 -3.515625 1.546875 -3.390625 C 1.390625 -3.273438 1.265625 -3.109375 1.171875 -2.890625 C 1.078125 -2.679688 1.03125 -2.441406 1.03125 -2.171875 C 1.03125 -1.835938 1.066406 -1.550781 1.140625 -1.3125 C 1.222656 -1.070312 1.335938 -0.882812 1.484375 -0.75 C 1.640625 -0.625 1.8125 -0.5625 2 -0.5625 C 2.300781 -0.5625 2.519531 -0.632812 2.65625 -0.78125 C 2.789062 -0.925781 2.859375 -1.144531 2.859375 -1.4375 C 2.859375 -1.46875 2.859375 -1.519531 2.859375 -1.59375 L 1.984375 -1.59375 L 1.984375 -2.265625 Z M 3.5625 -2.265625 "/></g></g></g><g fill="#393536" fill-opacity="1"><g transform="translate(20.278989, 44.781652)"><g><path d="M 2.8125 -0.6875 L 2.8125 0 L 0.484375 0 L 0.484375 -4.21875 L 2.6875 -4.21875 L 2.6875 -3.5625 L 1.25 -3.5625 L 1.25 -2.5625 L 2.390625 -2.5625 L 2.390625 -1.921875 L 1.25 -1.921875 L 1.25 -0.6875 Z M 2.8125 -0.6875 "/></g></g></g><g fill="#393536" fill-opacity="1"><g transform="translate(23.637051, 44.781652)"><g><path d="M 3.484375 -4.21875 L 3.484375 0.078125 L 3.421875 0.078125 L 1.40625 -2.21875 L 1.21875 -2.46875 L 1.25 -1.875 L 1.25 0 L 0.515625 0 L 0.515625 -4.28125 L 0.578125 -4.28125 L 2.5625 -1.96875 L 2.78125 -1.6875 L 2.75 -2.265625 L 2.75 -4.21875 Z M 3.484375 -4.21875 "/></g></g></g><g fill="#393536" fill-opacity="1"><g transform="translate(27.931134, 44.781652)"><g><path d="M 2 0.078125 C 1.625 0.078125 1.300781 -0.0078125 1.03125 -0.1875 C 0.769531 -0.375 0.570312 -0.628906 0.4375 -0.953125 C 0.300781 -1.273438 0.234375 -1.660156 0.234375 -2.109375 C 0.234375 -2.546875 0.300781 -2.925781 0.4375 -3.25 C 0.570312 -3.582031 0.769531 -3.835938 1.03125 -4.015625 C 1.289062 -4.191406 1.609375 -4.28125 1.984375 -4.28125 C 2.367188 -4.28125 2.691406 -4.191406 2.953125 -4.015625 C 3.210938 -3.835938 3.410156 -3.582031 3.546875 -3.25 C 3.679688 -2.925781 3.75 -2.546875 3.75 -2.109375 C 3.75 -1.660156 3.675781 -1.273438 3.53125 -0.953125 C 3.394531 -0.628906 3.195312 -0.375 2.9375 -0.1875 C 2.675781 -0.0078125 2.363281 0.078125 2 0.078125 Z M 2 -0.578125 C 2.175781 -0.578125 2.332031 -0.632812 2.46875 -0.75 C 2.613281 -0.863281 2.726562 -1.035156 2.8125 -1.265625 C 2.894531 -1.503906 2.9375 -1.789062 2.9375 -2.125 C 2.9375 -2.625 2.851562 -3.003906 2.6875 -3.265625 C 2.519531 -3.523438 2.285156 -3.65625 1.984375 -3.65625 C 1.679688 -3.65625 1.445312 -3.523438 1.28125 -3.265625 C 1.125 -3.003906 1.046875 -2.625 1.046875 -2.125 C 1.046875 -1.78125 1.082031 -1.492188 1.15625 -1.265625 C 1.238281 -1.035156 1.347656 -0.863281 1.484375 -0.75 C 1.628906 -0.632812 1.800781 -0.578125 2 -0.578125 Z M 2 -0.578125 "/></g></g></g><g fill="#393536" fill-opacity="1"><g transform="translate(32.207099, 44.781652)"><g><path d="M 4.03125 -4.28125 L 4.03125 0 L 3.28125 0 L 3.28125 -1.8125 L 3.3125 -2.515625 L 3.09375 -2.1875 L 2.265625 -1.21875 L 1.4375 -2.1875 L 1.21875 -2.515625 L 1.25 -1.8125 L 1.25 0 L 0.515625 0 L 0.515625 -4.28125 L 0.5625 -4.28125 L 2.28125 -2.28125 L 3.96875 -4.28125 Z M 4.03125 -4.28125 "/></g></g></g><g fill="#393536" fill-opacity="1"><g transform="translate(37.044671, 44.781652)"><g><path d="M 2.8125 -0.6875 L 2.8125 0 L 0.484375 0 L 0.484375 -4.21875 L 2.6875 -4.21875 L 2.6875 -3.5625 L 1.25 -3.5625 L 1.25 -2.5625 L 2.390625 -2.5625 L 2.390625 -1.921875 L 1.25 -1.921875 L 1.25 -0.6875 Z M 2.8125 -0.6875 "/></g></g></g><g fill="#393536" fill-opacity="1"><g transform="translate(40.402732, 44.781652)"><g><path d="M 2.4375 0 L 1.6875 -1.625 L 0.96875 0 L 0.0625 0 L 1.171875 -2.171875 L 0.078125 -4.21875 L 0.984375 -4.21875 L 1.734375 -2.609375 L 2.453125 -4.21875 L 3.34375 -4.21875 L 2.234375 -2.09375 L 3.375 0 Z M 2.4375 0 "/></g></g></g></svg>